<svg data-v-423bf9ae="" xmlns="http://www.w3.org/2000/svg" viewBox="0 0 267.4893570625533 180" class="iconAbove"><!----><!----><!----><g data-v-423bf9ae="" id="7148093f-132d-49a8-b999-7a1ded3a02ce" fill="white" transform="matrix(4.255319033810256,0,0,4.255319033810256,-0.9361676235256766,119.72979540463075)"><path d="M2.41 7.21L4.02 2.84L5.75 7.21ZM9.56 10.08C9.18 10.05 8.86 10.12 8.40 9.00C8.40 9.00 7.46 6.61 4.89 0.43L4.70 0.43L2.31 6.82C1.02 10.08 0.67 10.07 0.22 10.08L0.22 10.29L3.51 10.29L3.51 10.08C1.43 10.16 2.17 7.98 2.37 7.42L5.84 7.42L6.29 8.54C6.45 8.93 6.89 10.08 5.96 10.08L5.96 10.29L9.56 10.29ZM15.99 8.50C15.69 9.00 14.71 9.53 13.85 9.41C12.87 9.25 11.94 8.54 11.94 6.85C11.94 4.34 13.38 3.91 13.92 3.91C14.66 3.91 15.01 4.21 14.88 4.26C14.70 4.33 14.55 4.48 14.48 4.69C14.32 5.08 14.50 5.54 14.91 5.70C15.32 5.85 15.78 5.63 15.93 5.24C16.06 4.97 15.96 4.63 15.79 4.42C15.61 4.21 15.11 3.70 13.92 3.70C11.65 3.70 10.40 5.39 10.40 7.04C10.40 8.89 11.77 10.42 13.47 10.42C15.20 10.42 15.97 9.30 16.16 8.60ZM20.82 6.92C20.82 6.92 20.82 8.88 20.82 8.90C20.69 9.24 20.36 9.67 19.75 9.67C18.87 9.67 18.75 8.86 18.75 8.67C18.75 7.88 19.32 7.25 20.82 6.92ZM23.38 9.37C23.30 9.66 22.99 9.66 22.99 9.66C22.33 9.66 22.33 8.74 22.33 8.74L22.33 6.50C22.33 4.84 21.88 3.70 20.20 3.70C20.20 3.70 19.49 3.65 18.87 3.98C18.12 4.38 17.91 4.77 17.78 5.00C17.65 5.22 17.67 5.53 17.84 5.77C18.06 6.09 18.52 6.16 18.84 5.94C19.17 5.70 19.25 5.25 19.01 4.93C18.89 4.76 18.73 4.68 18.54 4.65C18.45 4.63 18.52 4.38 19.01 4.13C20.06 3.63 20.82 4.40 20.82 5.84L20.82 6.68C18.40 7.29 17.22 7.52 17.22 8.99C17.22 10.42 18.83 10.42 18.83 10.42C19.81 10.42 20.64 9.90 20.83 9.25C20.96 10.43 22.12 10.42 22.12 10.42C22.93 10.42 23.49 9.88 23.59 9.45ZM29.30 8.30C29.30 9.28 28.66 9.97 27.72 9.97C26.54 9.97 25.96 9.04 25.96 6.80C25.96 4.62 26.64 3.91 27.62 3.91C28.45 3.91 29.30 4.54 29.30 6.09ZM31.49 9.91C30.91 9.87 30.77 9.74 30.77 9.06L30.77-0.10L28.59 0.35L28.59 0.56C29.16 0.71 29.30 0.88 29.30 1.37L29.30 4.16C28.85 3.88 28.27 3.70 27.59 3.70C25.69 3.70 24.23 4.75 24.23 6.97C24.23 9.04 25.47 10.42 27.20 10.42C27.87 10.42 28.85 10.11 29.30 9.34L29.30 10.15C29.30 10.15 29.30 10.46 29.69 10.40L31.49 10.12ZM39.34 7.31C38.89 10.11 35.80 10.08 35.18 10.08L34.61 10.08L34.61 5.42L35.31 5.42C35.49 5.42 37.31 5.42 37.42 6.86L37.63 6.86L37.63 3.78L37.42 3.78C37.31 5.21 35.50 5.21 35.31 5.21L34.61 5.21L34.61 0.64L35.24 0.64C35.81 0.64 38.92 0.66 39.16 3.02L39.37 3.02L39.37 0.43L32.09 0.43L32.09 0.64C32.70 0.64 32.87 1.27 32.87 2.14L32.87 8.51C32.87 9.46 32.68 10.08 32.09 10.08L32.09 10.29L39.55 10.29L39.55 7.31ZM46.48 9.44L44.51 6.47L45.00 5.82C46.41 3.93 47.17 4.05 47.52 4.03L47.52 3.82L44.44 3.82L44.44 4.03C45.95 4.03 45.09 5.29 44.87 5.66L44.39 6.29L43.51 4.96C43.01 4.24 43.30 4.03 43.65 4.03L43.65 3.82L40.56 3.82L40.56 4.03C40.84 4.05 41.08 3.99 41.59 4.62L43.54 7.50L42.98 8.29C41.64 10.12 40.95 10.08 40.64 10.08L40.64 10.29L43.64 10.29L43.64 10.08C42.08 10.08 42.83 8.92 43.13 8.46L43.67 7.69L44.60 9.10C44.60 9.10 45.32 10.08 44.62 10.08L44.62 10.29L47.74 10.29L47.74 10.08C47.52 10.08 46.93 10.08 46.48 9.44ZM53.58 7.28C53.58 9.46 52.89 10.21 51.91 10.21C51.11 10.21 50.34 9.67 50.25 8.33L50.25 5.74C50.33 4.84 50.88 4.17 51.76 4.17C52.93 4.17 53.58 5.04 53.58 7.28ZM55.30 7.11C55.30 5.04 54.07 3.70 52.35 3.70C51.66 3.70 50.68 4.02 50.25 4.80L50.25 3.70L48.06 4.17L48.06 4.38C48.64 4.54 48.76 4.66 48.76 5.15L48.76 12.59C48.76 13.30 48.73 13.64 48.20 13.79L48.20 14L50.82 14L50.82 13.79C50.32 13.66 50.25 13.36 50.25 12.59L50.25 9.94C50.68 10.23 51.27 10.42 51.94 10.42C53.86 10.42 55.30 9.32 55.30 7.11ZM61.32 7.06C61.32 9.59 60.84 10.21 59.79 10.21C58.76 10.21 58.27 9.59 58.27 7.06C58.27 4.52 58.76 3.91 59.79 3.91C60.84 3.91 61.32 4.52 61.32 7.06ZM63.08 7.06C63.08 5.21 61.94 3.70 59.79 3.70C57.67 3.70 56.52 5.21 56.52 7.06C56.52 8.89 57.67 10.42 59.79 10.42C61.94 10.42 63.08 8.89 63.08 7.06Z"></path></g><!----><g data-v-423bf9ae="" id="0e0bb25c-73d7-48c8-8871-da8be572a380" transform="matrix(1.0868111504448785,0,0,1.0868111504448785,78.74473429518693,-0.23894260335429607)" stroke="none" fill="white"><g clip-rule="evenodd"><path d="M12.983 10.59l17.018 88.223-5.872-59.049 29.021-1.892-.054-9.883L64.549 1 53.622 18.977z"></path><path d="M59.389 54.548l5.16-53.541-8.74 39.716-19.612 1.045 1.57 20.462-7.766 36.583 12.057-39.899z"></path><path d="M62.8 67.182l.549-10.453-15.979 3.755-.032 11.797-17.337 26.532 21.68-27.616zM65.711 62.394l14.841-4.731 1.509-12.532-15.899 2.095zM72.07 44.502l10.988-1.417 1.581-10.278-8.079-.373L64.549 1l8.43 30.967z"></path><path d="M87.413 31.294l1.256-9.506-9.544-2.694L64.549 1l14.483 22.437-.422 7z"></path></g></g><!----></svg>